<svg xmlns="http://www.w3.org/2000/svg" version="1.1" xmlns:xlink="http://www.w3.org/1999/xlink" xmlns:svgjs="http://svgjs.dev/svgjs" width="2000" height="1247" viewBox="0 0 2000 1247"><g transform="matrix(1,0,0,1,-1.2121212121212466,0.504858299595071)"><svg viewBox="0 0 396 247" data-background-color="#ffe9d1" preserveAspectRatio="xMidYMid meet" height="1247" width="2000" xmlns="http://www.w3.org/2000/svg" xmlns:xlink="http://www.w3.org/1999/xlink"><g id="tight-bounds" transform="matrix(1,0,0,1,0.2400000000000091,-0.09999999999999432)"><svg viewBox="0 0 395.52 247.2" height="247.2" width="395.52"><g><svg></svg></g><g><svg viewBox="0 0 395.52 247.2" height="247.2" width="395.52"><g transform="matrix(1,0,0,1,39.55199999999999,81.66202015316404)"><svg viewBox="0 0 316.416 83.87595969367192" height="83.87595969367192" width="316.416"><g><svg viewBox="0 0 316.416 83.87595969367192" height="83.87595969367192" width="316.416"><g><svg viewBox="0 0 316.416 83.87595969367192" height="83.87595969367192" width="316.416"><g><svg viewBox="0 0 316.416 83.87595969367192" height="83.87595969367192" width="316.416"><g id="textblocktransform"><svg viewBox="0 0 316.416 83.87595969367192" height="83.87595969367192" width="316.416" id="textblock"><g><svg viewBox="0 0 316.416 83.87595969367192" height="83.87595969367192" width="316.416"><g transform="matrix(1,0,0,1,0,0)"><svg width="316.416" viewBox="2.51 -37.5 181.71 48.17" height="83.87595969367192" data-palette-color="#fc6f2f"><path d="M14.23 0L6.4 0 6.45-7.37 14.23-7.37Q16.55-7.37 18.14-8.45 19.73-9.52 20.56-11.69 21.39-13.87 21.39-17.16L21.39-17.16 21.39-18.41Q21.39-21.68 20.57-23.84 19.75-26 18.13-27.08 16.5-28.15 14.09-28.15L14.09-28.15 6.25-28.15 6.25-35.55 14.09-35.55Q18.97-35.55 22.72-33.35 26.46-31.15 28.59-27.28 30.71-23.41 30.71-18.36L30.71-18.36 30.71-17.16Q30.71-12.13 28.59-8.25 26.46-4.37 22.75-2.19 19.04 0 14.23 0L14.23 0ZM11.69-35.55L11.69 0 2.51 0 2.51-35.55 11.69-35.55ZM47.95-7.1L47.95-17.36Q47.95-18.82 47.32-19.69 46.7-20.56 45.19-20.56L45.19-20.56Q44.38-20.56 43.83-20.31 43.28-20.07 43-19.53 42.72-18.99 42.72-18.09L42.72-18.09 33.93-18.09Q33.93-20.68 35.37-22.66 36.81-24.63 39.45-25.77 42.09-26.9 45.65-26.9L45.65-26.9Q48.83-26.9 51.34-25.84 53.85-24.78 55.32-22.64 56.78-20.51 56.78-17.31L56.78-17.31 56.78-6.88Q56.78-4.03 57.09-2.73 57.39-1.44 57.93-0.44L57.93-0.44 57.93 0 49.14 0Q48.53-1.29 48.24-3.17 47.95-5.05 47.95-7.1L47.95-7.1ZM49-16.24L49.05-11.45 45.65-11.45Q43.58-11.45 42.84-10.33 42.11-9.2 42.11-7.96L42.11-7.96Q42.11-7.06 42.78-6.51 43.45-5.96 44.46-5.96L44.46-5.96Q45.7-5.96 46.57-6.41 47.43-6.86 47.87-7.47 48.31-8.08 48.24-8.54L48.24-8.54 50.12-4.86Q49.63-3.91 49.03-2.97 48.44-2.03 47.56-1.25 46.68-0.46 45.41 0.01 44.14 0.49 42.33 0.49L42.33 0.49Q39.91 0.49 37.85-0.51 35.79-1.51 34.54-3.32 33.3-5.13 33.3-7.52L33.3-7.52Q33.3-11.6 36.3-13.92 39.3-16.24 45.73-16.24L45.73-16.24 49-16.24ZM69.55-1.68L76.53-35.55 80.95-35.55 83.64-34.11 76.19 0 71.26 0 69.55-1.68ZM68.4-35.55L74.26-1.32 72.38 0 66.69 0 59.3-35.55 68.4-35.55ZM86.69-1.51L92.52-35.55 101.58-35.55 94.21 0 88.52 0 86.69-1.51ZM84.27-35.55L91.45-1.46 89.64 0 84.71 0 77.09-34.16 79.88-35.55 84.27-35.55ZM112.93-37.5L112.93 0 104.12 0 104.12-37.5 112.93-37.5ZM111.91-14.01L109.88-13.84Q109.86-17.65 111.04-20.59 112.22-23.54 114.38-25.22 116.55-26.9 119.45-26.9L119.45-26.9Q122.06-26.9 124.08-25.87 126.09-24.83 127.23-22.49 128.36-20.14 128.36-16.21L128.36-16.21 128.36 0 119.52 0 119.52-16.26Q119.52-17.7 119.11-18.47 118.69-19.24 117.91-19.53 117.13-19.82 116.03-19.82L116.03-19.82Q114.67-19.82 113.85-19.42 113.03-19.02 112.6-18.25 112.18-17.48 112.04-16.41 111.91-15.33 111.91-14.01L111.91-14.01ZM145.69 0.49L145.69 0.49Q141.3 0.49 138.21-1.29 135.12-3.08 133.51-5.99 131.9-8.91 131.9-12.3L131.9-12.3 131.9-13.21Q131.9-16.99 133.32-20.1 134.73-23.22 137.59-25.06 140.44-26.9 144.77-26.9L144.77-26.9Q148.6-26.9 151.31-25.33 154.02-23.75 155.47-20.84 156.92-17.92 156.92-13.87L156.92-13.87 156.92-10.18 135.2-10.18 135.2-15.82 148.33-15.82 148.33-16.53Q148.35-17.68 147.94-18.41 147.52-19.14 146.71-19.48 145.89-19.82 144.69-19.82L144.69-19.82Q142.98-19.82 142.13-18.87 141.27-17.92 140.98-16.42 140.69-14.92 140.69-13.21L140.69-13.21 140.69-12.3Q140.69-10.55 141.35-9.27 142.01-7.98 143.26-7.3 144.52-6.62 146.28-6.62L146.28-6.62Q147.89-6.62 149.51-7.18 151.14-7.74 152.26-9.16L152.26-9.16 156.22-4.1Q154.99-2.39 152.27-0.95 149.55 0.49 145.69 0.49ZM168.1-3.2L174.79-26.42 184.22-26.42 173.69 3.88Q173.35 4.88 172.77 6.05 172.18 7.23 171.19 8.28 170.2 9.33 168.65 10 167.1 10.67 164.81 10.67L164.81 10.67Q163.98 10.67 163.49 10.63 163 10.6 162.54 10.47 162.07 10.35 161.29 10.16L161.29 10.16 161.29 3.61Q161.58 3.61 161.79 3.6 162 3.59 162.29 3.59L162.29 3.59Q164.25 3.59 165.04 3.11 165.83 2.64 166.15 1.81L166.15 1.81 168.1-3.2ZM167.05-26.42L171.89-8.67 172.79 1.15 166.93 0.83 157.63-26.42 167.05-26.42Z" opacity="1" transform="matrix(1,0,0,1,0,0)" fill="#fc6f2f" class="wordmark-text-0" data-fill-palette-color="primary" id="text-0"></path></svg></g></svg></g></svg></g></svg></g></svg></g></svg></g></svg></g><g><path d="M0 247.2v-247.2h395.52v247.2zM387.956 239.636v-232.072h-380.392v232.072z" fill="#fc6f2f" fill-rule="nonzero" stroke="none" stroke-width="1" stroke-linecap="butt" stroke-linejoin="miter" stroke-miterlimit="10" stroke-dasharray="" stroke-dashoffset="0" font-family="none" font-weight="none" font-size="none" text-anchor="none" style="mix-blend-mode: normal" data-fill-palette-color="tertiary"></path></g></svg></g><defs></defs></svg><rect width="395.52" height="247.2" fill="none" stroke="none" visibility="hidden"></rect></g></svg></g></svg>